# xmcd
#
# Track frame offsets:
#	150
#	10517
#	19907
#	31900
#	43315
#	54635
#	67147
#	80085
#	90187
#	102025
#	113807
#	126907
#	138140
#	149245
#	158807
#	169820
#	180965
#	191937
#	203420
#	216687
#	228282
#	240510
#	253085
#	264322
#
# Disc length: 3675 seconds
#
# Revision: 7
# Processed by: cddbd v1.5.2PL0 Copyright (c) Steve Scherf et al.
# Submitted via: dBpowerAMP V4.0
#
DISCID=520e5918
DTITLE=Various Artist - Country USA - 1955
DYEAR=1955
DGENRE=Country
TTITLE0=Faron Young - Live Fast, Love Hard, Die Young
TTITLE1=Eddy Arnold - I've Been Thinking
TTITLE2=Carl Smith - There She Goes
TTITLE3=The Louvin Brothers - When I Stop Dreaming
TTITLE4=Elvis Presley - I Forgot To Remember To Forget
TTITLE5=Hank Snow - Yellow Roses
TTITLE6=Webb Pierce - Love, Love, Love
TTITLE7=George Jones - Why, Baby, Why
TTITLE8=Tennessee Ernie Ford - Sixteen Tons
TTITLE9=Eddy Arnold - Just Call Me Lonesome
TTITLE10=Kitty Wells - Makin' Believe
TTITLE11=Tommy Collins - It Tickles
TTITLE12=Elvis Presley - Mystery Train
TTITLE13=Webb Pierce - In The Jailhouse Now
TTITLE14=Johnny Cash - Cry! Cry! Cry!
TTITLE15=Faron Young - All Right
TTITLE16=Porter Wagoner - Eat, Drink And Be Merry (Tomorrow You'll Cry)
TTITLE17=Eddy Arnold - The Cattle Call
TTITLE18=Hank Thompson - Wildwood Flower
TTITLE19=Red Foley and Kitty Wells - As Long As I Live
TTITLE20=Carl Smith - Kisses Don't Lie
TTITLE21=Porter Wagoner - A Satisfied Mind
TTITLE22=Webb Pierce - I Don't Care
TTITLE23=Jim Reeves - Yonder Comes A Sucker
EXTD=
EXTT0=
EXTT1=
EXTT2=
EXTT3=
EXTT4=
EXTT5=
EXTT6=
EXTT7=
EXTT8=
EXTT9=
EXTT10=
EXTT11=
EXTT12=
EXTT13=
EXTT14=
EXTT15=
EXTT16=
EXTT17=
EXTT18=
EXTT19=
EXTT20=
EXTT21=
EXTT22=
EXTT23=
PLAYORDER=
